<?xml version="1.0" encoding="UTF-8" standalone="no"?>
<!-- Created with Inkscape (http://www.inkscape.org/) -->

<svg
   version="1.1"
   id="svg2"
   xml:space="preserve"
   width="1537.5466"
   height="769.54663"
   viewBox="0 0 1537.5466 769.54663"
   sodipodi:docname="SVC.svg"
   inkscape:version="1.1.2 (0a00cf5339, 2022-02-04)"
   xmlns:inkscape="http://www.inkscape.org/namespaces/inkscape"
   xmlns:sodipodi="http://sodipodi.sourceforge.net/DTD/sodipodi-0.dtd"
   xmlns="http://www.w3.org/2000/svg"
   xmlns:svg="http://www.w3.org/2000/svg"><defs
     id="defs6"><clipPath
       clipPathUnits="userSpaceOnUse"
       id="clipPath50"><path
         d="M 0,0 H 576 V 576 H 0 Z"
         id="path48" /></clipPath><clipPath
       clipPathUnits="userSpaceOnUse"
       id="clipPath62"><path
         d="M 22.53,17.49 H 573.01 V 543.77 H 22.53 Z"
         id="path60" /></clipPath><clipPath
       clipPathUnits="userSpaceOnUse"
       id="clipPath1209"><path
         d="M 0,0 H 576 V 576 H 0 Z"
         id="path1207" /></clipPath><clipPath
       clipPathUnits="userSpaceOnUse"
       id="clipPath1221"><path
         d="m 31.01,17.49 h 542 v 555.52 h -542 z"
         id="path1219" /></clipPath><clipPath
       clipPathUnits="userSpaceOnUse"
       id="clipPath31058"><path
         d="M 45.06,34.98 H 570.02 V 528.83 H 45.06 Z"
         id="path31056" /></clipPath><clipPath
       clipPathUnits="userSpaceOnUse"
       id="clipPath31544"><path
         d="M 0,295.082 H 275.359 V 570.441 H 0 Z"
         id="path31542" /></clipPath><clipPath
       clipPathUnits="userSpaceOnUse"
       id="clipPath31554"><path
         d="M 0,0 H 576 V 576 H 0 Z"
         id="path31552" /></clipPath><clipPath
       clipPathUnits="userSpaceOnUse"
       id="clipPath31568"><path
         d="m 10.77,310.492 h 263.16 v 251.59 H 10.77 Z"
         id="path31566" /></clipPath><clipPath
       clipPathUnits="userSpaceOnUse"
       id="clipPath31576"><path
         d="M 0,0 H 576 V 576 H 0 Z"
         id="path31574" /></clipPath><clipPath
       clipPathUnits="userSpaceOnUse"
       id="clipPath31724"><path
         d="M 296.312,295.082 H 571.671 V 570.441 H 296.312 Z"
         id="path31722" /></clipPath><clipPath
       clipPathUnits="userSpaceOnUse"
       id="clipPath31734"><path
         d="M 0,0 H 576 V 576 H 0 Z"
         id="path31732" /></clipPath><clipPath
       clipPathUnits="userSpaceOnUse"
       id="clipPath31748"><path
         d="m 311.137,296.512 h 259.105 v 265.57 H 311.137 Z"
         id="path31746" /></clipPath><clipPath
       clipPathUnits="userSpaceOnUse"
       id="clipPath31756"><path
         d="M 0,0 H 576 V 576 H 0 Z"
         id="path31754" /></clipPath><clipPath
       clipPathUnits="userSpaceOnUse"
       id="clipPath32881"><path
         d="m 62.02,34.98 h 508 v 535.04 h -508 z"
         id="path32879" /></clipPath></defs><sodipodi:namedview
     id="namedview4"
     pagecolor="#ffffff"
     bordercolor="#666666"
     borderopacity="1.0"
     inkscape:pageshadow="2"
     inkscape:pageopacity="0.0"
     inkscape:pagecheckerboard="0"
     showgrid="false"
     inkscape:zoom="0.75682523"
     inkscape:cx="580.05466"
     inkscape:cy="270.20769"
     inkscape:window-width="1868"
     inkscape:window-height="1016"
     inkscape:window-x="0"
     inkscape:window-y="1107"
     inkscape:window-maximized="1"
     inkscape:current-layer="g8"
     fit-margin-top="0"
     fit-margin-left="0"
     fit-margin-right="0"
     fit-margin-bottom="0" /><g
     id="g8"
     inkscape:groupmode="layer"
     inkscape:label="SVC"
     transform="matrix(1.3333333,0,0,-1.3333333,404.39956,770.0992)"><g
       id="g14" /><g
       id="g16" /><g
       id="g18" /><g
       id="g20" /><g
       id="g22" /><g
       id="g24" /><g
       id="g26" /><g
       id="g28" /><g
       id="g30" /><g
       id="g32" /><g
       id="g34" /><g
       id="g36" /><g
       id="g38" /><g
       id="g40" /><g
       id="g42" /><g
       id="g54" /><g
       id="g84" /><g
       id="g86" /><g
       id="g88" /><g
       id="g90" /><g
       id="g92" /><g
       id="g94" /><g
       id="g96" /><g
       id="g98" /><g
       id="g100" /><g
       id="g102" /><g
       id="g104" /><g
       id="g106" /><g
       id="g112" /><g
       id="g114" /><g
       id="g134" /><g
       id="g136" /><g
       id="g148" /><g
       id="g150" /><g
       id="g152" /><g
       id="g154" /><g
       id="g156" /><g
       id="g158" /><g
       id="g160" /><g
       id="g166" /><g
       id="g168" /><g
       id="g180" /><g
       id="g200" /><g
       id="g202" /><g
       id="g204" /><g
       id="g206" /><g
       id="g208" /><g
       id="g210" /><g
       id="g212" /><g
       id="g220" /><g
       id="g222" /><g
       id="g230" /><g
       id="g232" /><g
       id="g234" /><g
       id="g236" /><g
       id="g238" /><g
       id="g240" /><g
       id="g242" /><g
       id="g244" /><g
       id="g250" /><g
       id="g252" /><g
       id="g254" /><g
       id="g262" /><g
       id="g264" /><g
       id="g266" /><g
       id="g268" /><g
       id="g270" /><g
       id="g276" /><g
       id="g282" /><g
       id="g284" /><g
       id="g286" /><g
       id="g292" /><g
       id="g298" /><g
       id="g300" /><g
       id="g302" /><g
       id="g310" /><g
       id="g312" /><g
       id="g314" /><g
       id="g316" /><g
       id="g318" /><g
       id="g326" /><g
       id="g328" /><g
       id="g330" /><g
       id="g332" /><g
       id="g334" /><g
       id="g336" /><g
       id="g338" /><g
       id="g340" /><g
       id="g342" /><g
       id="g344" /><g
       id="g346" /><g
       id="g348" /><g
       id="g350" /><g
       id="g352" /><g
       id="g354" /><g
       id="g356" /><g
       id="g1185"
       transform="matrix(0.47805436,0,0,0.47805436,296.31178,5.5572538)" /><g
       id="g1187"
       transform="matrix(0.47805436,0,0,0.47805436,296.31178,5.5572538)" /><g
       id="g1189"
       transform="matrix(0.47805436,0,0,0.47805436,296.31178,5.5572538)" /><g
       id="g1191"
       transform="matrix(0.47805436,0,0,0.47805436,296.31178,5.5572538)" /><g
       id="g1193"
       transform="matrix(0.47805436,0,0,0.47805436,296.31178,5.5572538)" /><g
       id="g1195"
       transform="matrix(0.47805436,0,0,0.47805436,296.31178,5.5572538)" /><g
       id="g1197"
       transform="matrix(0.47805436,0,0,0.47805436,296.31178,5.5572538)" /><g
       id="g1199"
       transform="matrix(0.47805436,0,0,0.47805436,296.31178,5.5572538)" /><g
       id="g1201"
       transform="matrix(0.47805436,0,0,0.47805436,296.31178,5.5572538)" /><g
       id="g1213"
       transform="matrix(0.47805436,0,0,0.47805436,296.31178,5.5572538)" /><g
       id="g1231"
       transform="matrix(0.47805436,0,0,0.47805436,296.31178,5.5572538)" /><g
       id="g1233"
       transform="matrix(0.47805436,0,0,0.47805436,296.31178,5.5572538)" /><g
       id="g1235"
       transform="matrix(0.47805436,0,0,0.47805436,296.31178,5.5572538)" /><g
       id="g1237"
       transform="matrix(0.47805436,0,0,0.47805436,296.31178,5.5572538)" /><g
       id="g1239"
       transform="matrix(0.47805436,0,0,0.47805436,296.31178,5.5572538)" /><g
       id="g1241"
       transform="matrix(0.47805436,0,0,0.47805436,296.31178,5.5572538)" /><g
       id="g1243"
       transform="matrix(0.47805436,0,0,0.47805436,296.31178,5.5572538)" /><g
       id="g1245"
       transform="matrix(0.47805436,0,0,0.47805436,296.31178,5.5572538)" /><g
       id="g1247"
       transform="matrix(0.47805436,0,0,0.47805436,296.31178,5.5572538)" /><g
       id="g1249"
       transform="matrix(0.47805436,0,0,0.47805436,296.31178,5.5572538)" /><g
       id="g1251"
       transform="matrix(0.47805436,0,0,0.47805436,296.31178,5.5572538)" /><g
       id="g1253"
       transform="matrix(0.47805436,0,0,0.47805436,296.31178,5.5572538)" /><g
       id="g1259"
       transform="matrix(0.47805436,0,0,0.47805436,296.31178,5.5572538)" /><g
       id="g1261"
       transform="matrix(0.47805436,0,0,0.47805436,296.31178,5.5572538)" /><g
       id="g1285"
       transform="matrix(0.47805436,0,0,0.47805436,296.31178,5.5572538)" /><g
       id="g1287"
       transform="matrix(0.47805436,0,0,0.47805436,296.31178,5.5572538)" /><g
       id="g1301"
       transform="matrix(0.47805436,0,0,0.47805436,296.31178,5.5572538)" /><g
       id="g1303"
       transform="matrix(0.47805436,0,0,0.47805436,296.31178,5.5572538)" /><g
       id="g1305"
       transform="matrix(0.47805436,0,0,0.47805436,296.31178,5.5572538)" /><g
       id="g1307"
       transform="matrix(0.47805436,0,0,0.47805436,296.31178,5.5572538)" /><g
       id="g1309"
       transform="matrix(0.47805436,0,0,0.47805436,296.31178,5.5572538)" /><g
       id="g1311"
       transform="matrix(0.47805436,0,0,0.47805436,296.31178,5.5572538)" /><g
       id="g1313"
       transform="matrix(0.47805436,0,0,0.47805436,296.31178,5.5572538)" /><g
       id="g1319"
       transform="matrix(0.47805436,0,0,0.47805436,296.31178,5.5572538)" /><g
       id="g1321"
       transform="matrix(0.47805436,0,0,0.47805436,296.31178,5.5572538)" /><g
       id="g1333"
       transform="matrix(0.47805436,0,0,0.47805436,296.31178,5.5572538)" /><g
       id="g1353"
       transform="matrix(0.47805436,0,0,0.47805436,296.31178,5.5572538)" /><g
       id="g1355"
       transform="matrix(0.47805436,0,0,0.47805436,296.31178,5.5572538)" /><g
       id="g1357"
       transform="matrix(0.47805436,0,0,0.47805436,296.31178,5.5572538)" /><g
       id="g1359"
       transform="matrix(0.47805436,0,0,0.47805436,296.31178,5.5572538)" /><g
       id="g1361"
       transform="matrix(0.47805436,0,0,0.47805436,296.31178,5.5572538)" /><g
       id="g1363"
       transform="matrix(0.47805436,0,0,0.47805436,296.31178,5.5572538)" /><g
       id="g1365"
       transform="matrix(0.47805436,0,0,0.47805436,296.31178,5.5572538)" /><g
       id="g1373"
       transform="matrix(0.47805436,0,0,0.47805436,296.31178,5.5572538)" /><g
       id="g1375"
       transform="matrix(0.47805436,0,0,0.47805436,296.31178,5.5572538)" /><g
       id="g1383"
       transform="matrix(0.47805436,0,0,0.47805436,296.31178,5.5572538)" /><g
       id="g1385"
       transform="matrix(0.47805436,0,0,0.47805436,296.31178,5.5572538)" /><g
       id="g1387"
       transform="matrix(0.47805436,0,0,0.47805436,296.31178,5.5572538)" /><g
       id="g1389"
       transform="matrix(0.47805436,0,0,0.47805436,296.31178,5.5572538)" /><g
       id="g1391"
       transform="matrix(0.47805436,0,0,0.47805436,296.31178,5.5572538)" /><g
       id="g1393"
       transform="matrix(0.47805436,0,0,0.47805436,296.31178,5.5572538)" /><g
       id="g1395"
       transform="matrix(0.47805436,0,0,0.47805436,296.31178,5.5572538)" /><g
       id="g1397"
       transform="matrix(0.47805436,0,0,0.47805436,296.31178,5.5572538)" /><g
       id="g1399"
       transform="matrix(0.47805436,0,0,0.47805436,296.31178,5.5572538)" /><g
       id="g1401"
       transform="matrix(0.47805436,0,0,0.47805436,296.31178,5.5572538)" /><g
       id="g1403"
       transform="matrix(0.47805436,0,0,0.47805436,296.31178,5.5572538)" /><g
       id="g1405"
       transform="matrix(0.47805436,0,0,0.47805436,296.31178,5.5572538)" /><g
       id="g1407"
       transform="matrix(0.47805436,0,0,0.47805436,296.31178,5.5572538)" /><g
       id="g31010"
       inkscape:label="SVC_diff"
       transform="translate(-302.71968,0.99441423)"><g
         id="g31012"><path
           d="M 0,0 H 576 V 576 H 0 Z"
           style="fill:#ffffff;fill-opacity:1;fill-rule:nonzero;stroke:none"
           id="path31014" /></g><g
         id="g31016" /><g
         id="g31018" /><g
         id="g31020" /><g
         id="g31022" /><g
         id="g31024" /><g
         id="g31026" /><g
         id="g31028" /><g
         id="g31030" /><g
         id="g31032" /><g
         id="g31034" /><g
         id="g31036" /><g
         id="g31038" /><g
         id="g31040" /><g
         id="g31042" /><g
         id="g31044" /><g
         id="g31046"><path
           d="M 0,0 H 576 V 576 H 0 Z"
           style="fill:#ffffff;fill-opacity:1;fill-rule:nonzero;stroke:#ffffff;stroke-width:1.16;stroke-linecap:round;stroke-linejoin:round;stroke-miterlimit:10;stroke-dasharray:none;stroke-opacity:1"
           id="path31048" /></g><g
         id="g31050" /><g
         id="g31052"><g
           id="g31054"
           clip-path="url(#clipPath31058)"><path
             d="M 45.06,34.98 H 570.02 V 528.83 H 45.06 Z"
             style="fill:#ffffff;fill-opacity:1;fill-rule:nonzero;stroke:none"
             id="path31060" /><path
             d="M 205.28,34.98 V 528.83"
             style="fill:none;stroke:#000000;stroke-width:0.53;stroke-linecap:butt;stroke-linejoin:round;stroke-miterlimit:10;stroke-dasharray:2.13, 2.13;stroke-dashoffset:0;stroke-opacity:1"
             id="path31062" /><path
             d="m 68.92,59.43 68.18,0.69 68.18,7.62 68.17,36.89 68.18,85.35 68.18,107.6 68.17,68.48 68.18,21.21 v -2.66 L 477.98,363.45 409.81,295.08 341.63,187.72 273.45,102.56 205.28,65.72 137.1,58.1 68.92,57.43 Z"
             style="fill:#e41a1c;fill-opacity:0.188;fill-rule:nonzero;stroke:none"
             id="path31064" /><path
             d="m 68.92,59.43 68.18,0.69 68.18,7.62 68.17,36.89 68.18,85.35 68.18,107.6 68.17,68.48 68.18,21.21"
             style="fill:none;stroke:#e41a1c;stroke-width:1.07;stroke-linecap:butt;stroke-linejoin:round;stroke-miterlimit:10;stroke-dasharray:none;stroke-opacity:1"
             id="path31066" /><path
             d="M 546.16,384.61 477.98,363.45 409.81,295.08 341.63,187.72 273.45,102.56 205.28,65.72 137.1,58.1 68.92,57.43"
             style="fill:none;stroke:#e41a1c;stroke-width:1.07;stroke-linecap:butt;stroke-linejoin:round;stroke-miterlimit:10;stroke-dasharray:none;stroke-opacity:1"
             id="path31068" /><path
             d="m 68.92,202.41 68.18,2.32 68.18,5.28 68.17,28.12 68.18,70.4 68.18,105.36 68.17,70.02 68.18,22.47 v -4.83 l -68.18,-22.41 -68.17,-69.83 -68.18,-104.94 -68.18,-70.06 -68.17,-28.03 -68.18,-5.29 -68.18,-2.3 z"
             style="fill:#377eb8;fill-opacity:0.188;fill-rule:nonzero;stroke:none"
             id="path31070" /><path
             d="m 68.92,202.41 68.18,2.32 68.18,5.28 68.17,28.12 68.18,70.4 68.18,105.36 68.17,70.02 68.18,22.47"
             style="fill:none;stroke:#377eb8;stroke-width:1.07;stroke-linecap:butt;stroke-linejoin:round;stroke-miterlimit:10;stroke-dasharray:none;stroke-opacity:1"
             id="path31072" /><path
             d="M 546.16,501.55 477.98,479.14 409.81,409.31 341.63,304.37 273.45,234.31 205.28,206.28 137.1,200.99 68.92,198.69"
             style="fill:none;stroke:#377eb8;stroke-width:1.07;stroke-linecap:butt;stroke-linejoin:round;stroke-miterlimit:10;stroke-dasharray:none;stroke-opacity:1"
             id="path31074" /><path
             d="m 68.92,58.43 68.18,0.68 68.18,7.62 68.17,36.86 68.18,85.26 68.18,107.48 68.17,68.43 68.18,21.18"
             style="fill:none;stroke:#e41a1c;stroke-width:1.07;stroke-linecap:butt;stroke-linejoin:round;stroke-miterlimit:10;stroke-dasharray:none;stroke-opacity:0.749"
             id="path31076" /><path
             d="m 68.92,200.55 68.18,2.31 68.18,5.29 68.17,28.07 68.18,70.23 68.18,105.15 68.17,69.93 68.18,22.43"
             style="fill:none;stroke:#377eb8;stroke-width:1.07;stroke-linecap:butt;stroke-linejoin:round;stroke-miterlimit:10;stroke-dasharray:none;stroke-opacity:0.749"
             id="path31078" /></g></g><g
         id="g31080" /><g
         id="g31082" /><g
         id="g31084" /><g
         id="g31086" /><g
         id="g31088" /><g
         id="g31090" /><g
         id="g31092" /><g
         id="g31094" /><g
         id="g31096" /><g
         id="g31098" /><g
         id="g31100" /><g
         id="g31102" /><g
         id="g31104"><path
           d="M 45.06,34.98 V 528.83"
           style="fill:none;stroke:#000000;stroke-width:1.16;stroke-linecap:butt;stroke-linejoin:round;stroke-miterlimit:10;stroke-dasharray:none;stroke-opacity:1"
           id="path31106" /></g><g
         id="g31108" /><g
         id="g31110" /><g
         id="g31112"><text
           transform="matrix(1,0,0,-1,20.22,122.16)"
           style="font-variant:normal;font-weight:normal;font-size:10px;font-family:Helvetica;-inkscape-font-specification:Helvetica;writing-mode:lr-tb;fill:#4d4d4d;fill-opacity:1;fill-rule:nonzero;stroke:none"
           id="text31116"><tspan
             x="0 5.5599999 8.3400002 13.9"
             y="0"
             sodipodi:role="line"
             id="tspan31114">0.10</tspan></text><text
           transform="matrix(1,0,0,-1,20.22,250.06)"
           style="font-variant:normal;font-weight:normal;font-size:10px;font-family:Helvetica;-inkscape-font-specification:Helvetica;writing-mode:lr-tb;fill:#4d4d4d;fill-opacity:1;fill-rule:nonzero;stroke:none"
           id="text31120"><tspan
             x="0 5.5599999 8.3400002 13.9"
             y="0"
             sodipodi:role="line"
             id="tspan31118">0.11</tspan></text><text
           transform="matrix(1,0,0,-1,20.22,377.97)"
           style="font-variant:normal;font-weight:normal;font-size:10px;font-family:Helvetica;-inkscape-font-specification:Helvetica;writing-mode:lr-tb;fill:#4d4d4d;fill-opacity:1;fill-rule:nonzero;stroke:none"
           id="text31124"><tspan
             x="0 5.5599999 8.3400002 13.9"
             y="0"
             sodipodi:role="line"
             id="tspan31122">0.12</tspan></text><text
           transform="matrix(1,0,0,-1,20.22,505.87)"
           style="font-variant:normal;font-weight:normal;font-size:10px;font-family:Helvetica;-inkscape-font-specification:Helvetica;writing-mode:lr-tb;fill:#4d4d4d;fill-opacity:1;fill-rule:nonzero;stroke:none"
           id="text31128"><tspan
             x="0 5.5599999 8.3400002 13.9"
             y="0"
             sodipodi:role="line"
             id="tspan31126">0.13</tspan></text></g><g
         id="g31130" /><g
         id="g31132" /><g
         id="g31134"><path
           d="m 42.07,125.75 h 2.99"
           style="fill:none;stroke:#333333;stroke-width:1.16;stroke-linecap:butt;stroke-linejoin:round;stroke-miterlimit:10;stroke-dasharray:none;stroke-opacity:1"
           id="path31136" /><path
           d="m 42.07,253.65 h 2.99"
           style="fill:none;stroke:#333333;stroke-width:1.16;stroke-linecap:butt;stroke-linejoin:round;stroke-miterlimit:10;stroke-dasharray:none;stroke-opacity:1"
           id="path31138" /><path
           d="m 42.07,381.56 h 2.99"
           style="fill:none;stroke:#333333;stroke-width:1.16;stroke-linecap:butt;stroke-linejoin:round;stroke-miterlimit:10;stroke-dasharray:none;stroke-opacity:1"
           id="path31140" /><path
           d="m 42.07,509.46 h 2.99"
           style="fill:none;stroke:#333333;stroke-width:1.16;stroke-linecap:butt;stroke-linejoin:round;stroke-miterlimit:10;stroke-dasharray:none;stroke-opacity:1"
           id="path31142" /></g><g
         id="g31144" /><g
         id="g31146" /><g
         id="g31148" /><g
         id="g31150" /><g
         id="g31152" /><g
         id="g31154" /><g
         id="g31156" /><g
         id="g31158"><path
           d="M 45.06,34.98 H 570.02"
           style="fill:none;stroke:#000000;stroke-width:1.16;stroke-linecap:butt;stroke-linejoin:round;stroke-miterlimit:10;stroke-dasharray:none;stroke-opacity:1"
           id="path31160" /></g><g
         id="g31162" /><g
         id="g31164" /><g
         id="g31166"><path
           d="m 68.92,31.99 v 2.99"
           style="fill:none;stroke:#333333;stroke-width:1.16;stroke-linecap:butt;stroke-linejoin:round;stroke-miterlimit:10;stroke-dasharray:none;stroke-opacity:1"
           id="path31168" /><path
           d="m 205.28,31.99 v 2.99"
           style="fill:none;stroke:#333333;stroke-width:1.16;stroke-linecap:butt;stroke-linejoin:round;stroke-miterlimit:10;stroke-dasharray:none;stroke-opacity:1"
           id="path31170" /><path
           d="m 341.63,31.99 v 2.99"
           style="fill:none;stroke:#333333;stroke-width:1.16;stroke-linecap:butt;stroke-linejoin:round;stroke-miterlimit:10;stroke-dasharray:none;stroke-opacity:1"
           id="path31172" /><path
           d="m 477.98,31.99 v 2.99"
           style="fill:none;stroke:#333333;stroke-width:1.16;stroke-linecap:butt;stroke-linejoin:round;stroke-miterlimit:10;stroke-dasharray:none;stroke-opacity:1"
           id="path31174" /></g><g
         id="g31176" /><g
         id="g31178"><text
           transform="matrix(1,0,0,-1,59.05,22.42)"
           style="font-variant:normal;font-weight:normal;font-size:10px;font-family:Helvetica;-inkscape-font-specification:Helvetica;writing-mode:lr-tb;fill:#4d4d4d;fill-opacity:1;fill-rule:nonzero;stroke:none"
           id="text31182"><tspan
             x="0 5.8400002 11.4 14.18"
             y="0"
             sodipodi:role="line"
             id="tspan31180">−0.1</tspan></text><text
           transform="matrix(1,0,0,-1,198.33,22.42)"
           style="font-variant:normal;font-weight:normal;font-size:10px;font-family:Helvetica;-inkscape-font-specification:Helvetica;writing-mode:lr-tb;fill:#4d4d4d;fill-opacity:1;fill-rule:nonzero;stroke:none"
           id="text31186"><tspan
             x="0 5.5599999 8.3400002"
             y="0"
             sodipodi:role="line"
             id="tspan31184">0.0</tspan></text><text
           transform="matrix(1,0,0,-1,334.68,22.42)"
           style="font-variant:normal;font-weight:normal;font-size:10px;font-family:Helvetica;-inkscape-font-specification:Helvetica;writing-mode:lr-tb;fill:#4d4d4d;fill-opacity:1;fill-rule:nonzero;stroke:none"
           id="text31190"><tspan
             x="0 5.5599999 8.3400002"
             y="0"
             sodipodi:role="line"
             id="tspan31188">0.1</tspan></text><text
           transform="matrix(1,0,0,-1,471.03,22.42)"
           style="font-variant:normal;font-weight:normal;font-size:10px;font-family:Helvetica;-inkscape-font-specification:Helvetica;writing-mode:lr-tb;fill:#4d4d4d;fill-opacity:1;fill-rule:nonzero;stroke:none"
           id="text31194"><tspan
             x="0 5.5599999 8.3400002"
             y="0"
             sodipodi:role="line"
             id="tspan31192">0.2</tspan></text></g><g
         id="g31196" /><g
         id="g31198" /><g
         id="g31200" /><g
         id="g31202" /><g
         id="g31204" /><g
         id="g31206" /><g
         id="g31208" /><g
         id="g31210"><text
           transform="matrix(1,0,0,-1,279.21,8.62)"
           style="font-variant:normal;font-weight:normal;font-size:12px;font-family:Helvetica;-inkscape-font-specification:Helvetica;writing-mode:lr-tb;fill:#000000;fill-opacity:1;fill-rule:nonzero;stroke:none"
           id="text31214"><tspan
             x="0 7.3319998 9.9960003 19.992001 26.664 30 33.995998 39.995998 46.667999 52.667999"
             y="0"
             sodipodi:role="line"
             id="tspan31212">Time (sec)</tspan></text></g><g
         id="g31216" /><g
         id="g31218" /><g
         id="g31220"><text
           transform="matrix(0,1,1,0,14.59,217.01)"
           style="font-variant:normal;font-weight:normal;font-size:12px;font-family:Helvetica;-inkscape-font-specification:Helvetica;writing-mode:lr-tb;fill:#000000;fill-opacity:1;fill-rule:nonzero;stroke:none"
           id="text31224"><tspan
             x="0 8.6639996 11.328 17.327999 20.664 27.336 34.007999 40.007999 46.68 50.015999 53.352001 57.348 64.019997 74.015999 77.351997 83.664001 89.424004 96.096001 100.452 107.124 109.788 116.46 123.132"
             y="0"
             sodipodi:role="line"
             id="tspan31222">Distance from hyerplane</tspan></text></g><g
         id="g31226" /><g
         id="g31228" /><g
         id="g31230" /><g
         id="g31232" /><g
         id="g31234" /><g
         id="g31236" /><g
         id="g31238" /><g
         id="g31240" /><g
         id="g31242"><path
           d="m 223.04,540.79 h 169 v 29.24 h -169 z"
           style="fill:#ffffff;fill-opacity:1;fill-rule:nonzero;stroke:none"
           id="path31244" /></g><g
         id="g31246" /><g
         id="g31248" /><g
         id="g31250" /><g
         id="g31252"><text
           transform="matrix(1,0,0,-1,229.02,551.1)"
           style="font-variant:normal;font-weight:normal;font-size:12px;font-family:Helvetica;-inkscape-font-specification:Helvetica;writing-mode:lr-tb;fill:#000000;fill-opacity:1;fill-rule:nonzero;stroke:none"
           id="text31256"><tspan
             x="0 9.9960003 16.667999 23.34"
             y="0"
             sodipodi:role="line"
             id="tspan31254">Mode</tspan></text></g><g
         id="g31258" /><g
         id="g31260" /><g
         id="g31262" /><g
         id="g31264" /><g
         id="g31266" /><g
         id="g31268"><path
           d="m 265.72,547.47 h 15.86 v 15.86 h -15.86 z"
           style="fill:#e41a1c;fill-opacity:0.188;fill-rule:nonzero;stroke:#e41a1c;stroke-width:1.07;stroke-linecap:butt;stroke-linejoin:miter;stroke-miterlimit:10;stroke-dasharray:none;stroke-opacity:1"
           id="path31270" /></g><g
         id="g31272" /><g
         id="g31274"><path
           d="m 266.74,555.4 h 13.82"
           style="fill:none;stroke:#e41a1c;stroke-width:1.07;stroke-linecap:butt;stroke-linejoin:round;stroke-miterlimit:10;stroke-dasharray:none;stroke-opacity:0.749"
           id="path31276" /></g><g
         id="g31278" /><g
         id="g31280" /><g
         id="g31282" /><g
         id="g31284"><path
           d="m 330.47,547.47 h 15.86 v 15.86 h -15.86 z"
           style="fill:#377eb8;fill-opacity:0.188;fill-rule:nonzero;stroke:#377eb8;stroke-width:1.07;stroke-linecap:butt;stroke-linejoin:miter;stroke-miterlimit:10;stroke-dasharray:none;stroke-opacity:1"
           id="path31286" /></g><g
         id="g31288" /><g
         id="g31290"><path
           d="m 331.49,555.4 h 13.83"
           style="fill:none;stroke:#377eb8;stroke-width:1.07;stroke-linecap:butt;stroke-linejoin:round;stroke-miterlimit:10;stroke-dasharray:none;stroke-opacity:0.749"
           id="path31292" /></g><g
         id="g31294" /><g
         id="g31296" /><g
         id="g31298" /><g
         id="g31300"><text
           transform="matrix(1,0,0,-1,288.27,551.81)"
           style="font-variant:normal;font-weight:normal;font-size:10px;font-family:Helvetica;-inkscape-font-specification:Helvetica;writing-mode:lr-tb;fill:#000000;fill-opacity:1;fill-rule:nonzero;stroke:none"
           id="text31304"><tspan
             x="0 5.2600002 10.26 13.04 18.6 22.18 27.74 33.299999"
             y="0"
             sodipodi:role="line"
             id="tspan31302">external</tspan></text></g><g
         id="g31306" /><g
         id="g31308" /><g
         id="g31310" /><g
         id="g31312" /><g
         id="g31314" /><g
         id="g31316"><text
           transform="matrix(1,0,0,-1,353.02,551.81)"
           style="font-variant:normal;font-weight:normal;font-size:10px;font-family:Helvetica;-inkscape-font-specification:Helvetica;writing-mode:lr-tb;fill:#000000;fill-opacity:1;fill-rule:nonzero;stroke:none"
           id="text31320"><tspan
             x="0 2.22 7.7800002 10.56 16.120001 19.700001 25.26 30.82"
             y="0"
             sodipodi:role="line"
             id="tspan31318">internal</tspan></text></g><g
         id="g31322" /><g
         id="g31324" /><g
         id="g31326" /><g
         id="g31328" /><g
         id="g31330" /><g
         id="g31332" /><g
         id="g31334" /><g
         id="g31336" /><g
         id="g31338" /><g
         id="g31340" /><g
         id="g31342" /><g
         id="g31344" /><g
         id="g31346" /><g
         id="g31348" /><g
         id="g31350" /><g
         id="g31352" /></g><g
       id="g32845"
       inkscape:label="SVC_diff"
       transform="translate(273.28032,0.99441423)"><g
         id="g32847"><path
           d="M 0,0 H 576 V 576 H 0 Z"
           style="fill:#ffffff;fill-opacity:1;fill-rule:nonzero;stroke:none"
           id="path32849" /></g><g
         id="g32851" /><g
         id="g32853" /><g
         id="g32855" /><g
         id="g32857" /><g
         id="g32859" /><g
         id="g32861" /><g
         id="g32863" /><g
         id="g32865" /><g
         id="g32867" /><g
         id="g32869"><path
           d="M 0,0 H 576 V 576 H 0 Z"
           style="fill:#ffffff;fill-opacity:1;fill-rule:nonzero;stroke:#ffffff;stroke-width:1.16;stroke-linecap:round;stroke-linejoin:round;stroke-miterlimit:10;stroke-dasharray:none;stroke-opacity:1"
           id="path32871" /></g><g
         id="g32873" /><g
         id="g32875"><g
           id="g32877"
           clip-path="url(#clipPath32881)"><path
             d="m 62.02,34.98 h 508 v 535.04 h -508 z"
             style="fill:#ffffff;fill-opacity:1;fill-rule:nonzero;stroke:none"
             id="path32883" /><path
             d="M 217.06,34.98 V 570.02"
             style="fill:none;stroke:#000000;stroke-width:0.53;stroke-linecap:butt;stroke-linejoin:round;stroke-miterlimit:10;stroke-dasharray:2.13, 2.13;stroke-dashoffset:0;stroke-opacity:1"
             id="path32885" /><path
             d="m 85.11,121.75 65.98,-24.41 65.97,27.26 65.98,92.55 65.97,249.86 65.97,78.69 65.98,-33.14 65.97,-23.73 v -49.32 l -65.97,24.43 -65.98,35.3 L 349.01,424.91 283.04,178.39 217.06,86.72 151.09,59.3 85.11,84.04 Z"
             style="fill:#333333;fill-opacity:0.188;fill-rule:nonzero;stroke:none"
             id="path32887" /><path
             d="m 85.11,102.9 65.98,-24.58 65.97,27.34 65.98,92.11 65.97,248.19 65.97,76.51 65.98,-34.22 65.97,-24.08"
             style="fill:none;stroke:#000000;stroke-width:1.07;stroke-linecap:butt;stroke-linejoin:round;stroke-miterlimit:10;stroke-dasharray:none;stroke-opacity:0.749"
             id="path32889" /></g></g><g
         id="g32891" /><g
         id="g32893" /><g
         id="g32895" /><g
         id="g32897" /><g
         id="g32899" /><g
         id="g32901" /><g
         id="g32903" /><g
         id="g32905" /><g
         id="g32907" /><g
         id="g32909" /><g
         id="g32911" /><g
         id="g32913" /><g
         id="g32915"><path
           d="M 62.02,34.98 V 570.02"
           style="fill:none;stroke:#000000;stroke-width:1.16;stroke-linecap:butt;stroke-linejoin:round;stroke-miterlimit:10;stroke-dasharray:none;stroke-opacity:1"
           id="path32917" /></g><g
         id="g32919" /><g
         id="g32921" /><g
         id="g32923"><text
           transform="matrix(1,0,0,-1,20.22,92.74)"
           style="font-variant:normal;font-weight:normal;font-size:10px;font-family:Helvetica;-inkscape-font-specification:Helvetica;writing-mode:lr-tb;fill:#4d4d4d;fill-opacity:1;fill-rule:nonzero;stroke:none"
           id="text32927"><tspan
             x="0 5.8400002 11.4 14.18 19.74 25.299999 30.860001"
             y="0"
             sodipodi:role="line"
             id="tspan32925">−0.0100</tspan></text><text
           transform="matrix(1,0,0,-1,20.22,189.31)"
           style="font-variant:normal;font-weight:normal;font-size:10px;font-family:Helvetica;-inkscape-font-specification:Helvetica;writing-mode:lr-tb;fill:#4d4d4d;fill-opacity:1;fill-rule:nonzero;stroke:none"
           id="text32931"><tspan
             x="0 5.8400002 11.4 14.18 19.74 25.299999 30.860001"
             y="0"
             sodipodi:role="line"
             id="tspan32929">−0.0095</tspan></text><text
           transform="matrix(1,0,0,-1,20.22,285.87)"
           style="font-variant:normal;font-weight:normal;font-size:10px;font-family:Helvetica;-inkscape-font-specification:Helvetica;writing-mode:lr-tb;fill:#4d4d4d;fill-opacity:1;fill-rule:nonzero;stroke:none"
           id="text32935"><tspan
             x="0 5.8400002 11.4 14.18 19.74 25.299999 30.860001"
             y="0"
             sodipodi:role="line"
             id="tspan32933">−0.0090</tspan></text><text
           transform="matrix(1,0,0,-1,20.22,382.44)"
           style="font-variant:normal;font-weight:normal;font-size:10px;font-family:Helvetica;-inkscape-font-specification:Helvetica;writing-mode:lr-tb;fill:#4d4d4d;fill-opacity:1;fill-rule:nonzero;stroke:none"
           id="text32939"><tspan
             x="0 5.8400002 11.4 14.18 19.74 25.299999 30.860001"
             y="0"
             sodipodi:role="line"
             id="tspan32937">−0.0085</tspan></text><text
           transform="matrix(1,0,0,-1,20.22,479.01)"
           style="font-variant:normal;font-weight:normal;font-size:10px;font-family:Helvetica;-inkscape-font-specification:Helvetica;writing-mode:lr-tb;fill:#4d4d4d;fill-opacity:1;fill-rule:nonzero;stroke:none"
           id="text32943"><tspan
             x="0 5.8400002 11.4 14.18 19.74 25.299999 30.860001"
             y="0"
             sodipodi:role="line"
             id="tspan32941">−0.0080</tspan></text></g><g
         id="g32945" /><g
         id="g32947" /><g
         id="g32949"><path
           d="m 59.03,96.33 h 2.99"
           style="fill:none;stroke:#333333;stroke-width:1.16;stroke-linecap:butt;stroke-linejoin:round;stroke-miterlimit:10;stroke-dasharray:none;stroke-opacity:1"
           id="path32951" /><path
           d="m 59.03,192.9 h 2.99"
           style="fill:none;stroke:#333333;stroke-width:1.16;stroke-linecap:butt;stroke-linejoin:round;stroke-miterlimit:10;stroke-dasharray:none;stroke-opacity:1"
           id="path32953" /><path
           d="m 59.03,289.46 h 2.99"
           style="fill:none;stroke:#333333;stroke-width:1.16;stroke-linecap:butt;stroke-linejoin:round;stroke-miterlimit:10;stroke-dasharray:none;stroke-opacity:1"
           id="path32955" /><path
           d="m 59.03,386.03 h 2.99"
           style="fill:none;stroke:#333333;stroke-width:1.16;stroke-linecap:butt;stroke-linejoin:round;stroke-miterlimit:10;stroke-dasharray:none;stroke-opacity:1"
           id="path32957" /><path
           d="m 59.03,482.6 h 2.99"
           style="fill:none;stroke:#333333;stroke-width:1.16;stroke-linecap:butt;stroke-linejoin:round;stroke-miterlimit:10;stroke-dasharray:none;stroke-opacity:1"
           id="path32959" /></g><g
         id="g32961" /><g
         id="g32963" /><g
         id="g32965" /><g
         id="g32967" /><g
         id="g32969" /><g
         id="g32971" /><g
         id="g32973" /><g
         id="g32975"><path
           d="m 62.02,34.98 h 508"
           style="fill:none;stroke:#000000;stroke-width:1.16;stroke-linecap:butt;stroke-linejoin:round;stroke-miterlimit:10;stroke-dasharray:none;stroke-opacity:1"
           id="path32977" /></g><g
         id="g32979" /><g
         id="g32981" /><g
         id="g32983"><path
           d="m 85.11,31.99 v 2.99"
           style="fill:none;stroke:#333333;stroke-width:1.16;stroke-linecap:butt;stroke-linejoin:round;stroke-miterlimit:10;stroke-dasharray:none;stroke-opacity:1"
           id="path32985" /><path
           d="m 217.06,31.99 v 2.99"
           style="fill:none;stroke:#333333;stroke-width:1.16;stroke-linecap:butt;stroke-linejoin:round;stroke-miterlimit:10;stroke-dasharray:none;stroke-opacity:1"
           id="path32987" /><path
           d="m 349.01,31.99 v 2.99"
           style="fill:none;stroke:#333333;stroke-width:1.16;stroke-linecap:butt;stroke-linejoin:round;stroke-miterlimit:10;stroke-dasharray:none;stroke-opacity:1"
           id="path32989" /><path
           d="m 480.96,31.99 v 2.99"
           style="fill:none;stroke:#333333;stroke-width:1.16;stroke-linecap:butt;stroke-linejoin:round;stroke-miterlimit:10;stroke-dasharray:none;stroke-opacity:1"
           id="path32991" /></g><g
         id="g32993" /><g
         id="g32995"><text
           transform="matrix(1,0,0,-1,75.24,22.42)"
           style="font-variant:normal;font-weight:normal;font-size:10px;font-family:Helvetica;-inkscape-font-specification:Helvetica;writing-mode:lr-tb;fill:#4d4d4d;fill-opacity:1;fill-rule:nonzero;stroke:none"
           id="text32999"><tspan
             x="0 5.8400002 11.4 14.18"
             y="0"
             sodipodi:role="line"
             id="tspan32997">−0.1</tspan></text><text
           transform="matrix(1,0,0,-1,210.11,22.42)"
           style="font-variant:normal;font-weight:normal;font-size:10px;font-family:Helvetica;-inkscape-font-specification:Helvetica;writing-mode:lr-tb;fill:#4d4d4d;fill-opacity:1;fill-rule:nonzero;stroke:none"
           id="text33003"><tspan
             x="0 5.5599999 8.3400002"
             y="0"
             sodipodi:role="line"
             id="tspan33001">0.0</tspan></text><text
           transform="matrix(1,0,0,-1,342.06,22.42)"
           style="font-variant:normal;font-weight:normal;font-size:10px;font-family:Helvetica;-inkscape-font-specification:Helvetica;writing-mode:lr-tb;fill:#4d4d4d;fill-opacity:1;fill-rule:nonzero;stroke:none"
           id="text33007"><tspan
             x="0 5.5599999 8.3400002"
             y="0"
             sodipodi:role="line"
             id="tspan33005">0.1</tspan></text><text
           transform="matrix(1,0,0,-1,474.01,22.42)"
           style="font-variant:normal;font-weight:normal;font-size:10px;font-family:Helvetica;-inkscape-font-specification:Helvetica;writing-mode:lr-tb;fill:#4d4d4d;fill-opacity:1;fill-rule:nonzero;stroke:none"
           id="text33011"><tspan
             x="0 5.5599999 8.3400002"
             y="0"
             sodipodi:role="line"
             id="tspan33009">0.2</tspan></text></g><g
         id="g33013" /><g
         id="g33015" /><g
         id="g33017" /><g
         id="g33019" /><g
         id="g33021" /><g
         id="g33023" /><g
         id="g33025" /><g
         id="g33027"><text
           transform="matrix(1,0,0,-1,287.69,8.62)"
           style="font-variant:normal;font-weight:normal;font-size:12px;font-family:Helvetica;-inkscape-font-specification:Helvetica;writing-mode:lr-tb;fill:#000000;fill-opacity:1;fill-rule:nonzero;stroke:none"
           id="text33031"><tspan
             x="0 7.3319998 9.9960003 19.992001 26.664 30 33.995998 39.995998 46.667999 52.667999"
             y="0"
             sodipodi:role="line"
             id="tspan33029">Time (sec)</tspan></text></g><g
         id="g33033" /><g
         id="g33035" /><g
         id="g33037"><text
           transform="matrix(0,1,1,0,14.59,186.29)"
           style="font-variant:normal;font-weight:normal;font-size:12px;font-family:Helvetica;-inkscape-font-specification:Helvetica;writing-mode:lr-tb;fill:#000000;fill-opacity:1;fill-rule:nonzero;stroke:none"
           id="text33041"><tspan
             x="0 8.6639996 11.328 17.327999 20.664 27.336 34.007999 40.007999 46.68 50.015999 53.352001 57.348 64.019997 74.015999 77.351997 83.664001 89.424004 96.096001 100.452 107.124 109.788 116.46 123.132 129.804 133.14 136.476 142.78799 148.78799 152.12399 158.79601 163.092 169.76401 176.436 179.10001 182.436 189.444 192.78 195.444 202.116 205.452 212.12399 216.42 223.092 229.76401"
             y="0"
             sodipodi:role="line"
             id="tspan33039">Distance from hyerplane: external − internal</tspan></text></g><g
         id="g33043" /><g
         id="g33045" /><g
         id="g33047" /><g
         id="g33049" /><g
         id="g33051" /><g
         id="g33053" /><g
         id="g33055" /><g
         id="g33057" /><g
         id="g33059" /><g
         id="g33061" /><g
         id="g33063" /><g
         id="g33065" /><g
         id="g33067" /></g></g></svg>
