<?xml version="1.0" encoding="UTF-8" standalone="no"?>
<svg
   width="1280.934"
   height="1280.934"
   viewBox="0 0 1280.934 1280.934"
   fill="none"
   version="1.1"
   id="svg14"
   sodipodi:docname="coffee.svg"
   inkscape:version="1.3.2 (091e20e, 2023-11-25)"
   xmlns:inkscape="http://www.inkscape.org/namespaces/inkscape"
   xmlns:sodipodi="http://sodipodi.sourceforge.net/DTD/sodipodi-0.dtd"
   xmlns="http://www.w3.org/2000/svg"
   xmlns:svg="http://www.w3.org/2000/svg">
  <defs
     id="defs14" />
  <sodipodi:namedview
     id="namedview14"
     pagecolor="#ffffff"
     bordercolor="#000000"
     borderopacity="0.25"
     inkscape:showpageshadow="2"
     inkscape:pageopacity="0.0"
     inkscape:pagecheckerboard="0"
     inkscape:deskcolor="#d1d1d1"
     inkscape:zoom="0.31665364"
     inkscape:cx="382.12098"
     inkscape:cy="544.75925"
     inkscape:window-width="1512"
     inkscape:window-height="842"
     inkscape:window-x="0"
     inkscape:window-y="38"
     inkscape:window-maximized="0"
     inkscape:current-layer="svg14" />
  <path
     d="m 1017.9633,296.75998 -0.878,-0.516 -2.03,-0.619 c 0.817,0.689 1.839,1.089 2.908,1.135 z"
     fill="#0d0c22"
     id="path1" />
  <path
     d="m 1030.7503,388.13298 -0.98,0.275 z"
     fill="#0d0c22"
     id="path2" />
  <path
     d="m 1018.3383,296.61898 c -0.125,-0.016 -0.247,-0.045 -0.366,-0.087 -0.01,0.081 -0.01,0.163 0,0.244 0.134,-0.018 0.261,-0.072 0.366,-0.157 z"
     fill="#0d0c22"
     id="path3" />
  <path
     d="m 1017.9673,296.77098 h 0.131 v -0.082 z"
     fill="#0d0c22"
     id="path4" />
  <path
     d="m 1029.9653,387.96798 1.48,-0.843 0.551,-0.31 0.499,-0.533 c -0.939,0.404 -1.795,0.976 -2.53,1.686 z"
     fill="#0d0c22"
     id="path5" />
  <path
     d="m 1020.5233,298.75698 -1.446,-1.377 -0.98,-0.533 c 0.527,0.93 1.398,1.616 2.426,1.91 z"
     fill="#0d0c22"
     id="path6" />
  <path
     d="m 656.87332,1185.422 c -1.155,0.5 -2.167,1.28 -2.943,2.27 l 0.912,-0.58 c 0.62,-0.57 1.497,-1.24 2.031,-1.69 z"
     fill="#0d0c22"
     id="path7" />
  <path
     d="m 868.04132,1143.872 c 0,-1.3 -0.636,-1.06 -0.482,3.58 0,-0.37 0.155,-0.75 0.224,-1.11 0.086,-0.83 0.155,-1.64 0.258,-2.47 z"
     fill="#0d0c22"
     id="path8" />
  <path
     d="m 846.13832,1185.422 c -1.155,0.5 -2.166,1.28 -2.942,2.27 l 0.912,-0.58 c 0.619,-0.57 1.497,-1.24 2.03,-1.69 z"
     fill="#0d0c22"
     id="path9" />
  <path
     d="m 508.15832,1195.302 c -0.877,-0.76 -1.95,-1.26 -3.097,-1.45 0.929,0.45 1.858,0.9 2.477,1.24 z"
     fill="#0d0c22"
     id="path10" />
  <path
     d="m 474.69532,1163.252 c -0.137,-1.35 -0.553,-2.66 -1.222,-3.85 0.474,1.23 0.87,2.5 1.187,3.78 z"
     fill="#0d0c22"
     id="path11" />
  <path
     d="m 305.54282,385.37398 0.7914,0.74 0.5163,0.31 c -0.3975,-0.395 -0.8359,-0.747 -1.3077,-1.05 z"
     fill="#0d0c22"
     id="path13" />
  <path
     d="m 1106.4213,341.09098 -7.037,-35.497 c -6.315,-31.849 -20.648,-61.943 -53.34,-73.454 -10.479,-3.683 -22.369,-5.265 -30.404,-12.888 -8.035,-7.622 -10.41,-19.46 -12.268,-30.438 -3.44198,-20.149 -6.67598,-40.315 -10.20398,-60.429 -3.045,-17.293 -5.454,-36.718704 -13.386,-52.583004 -10.324,-21.3016 -31.746,-33.7591 -53.048,-42.001 -10.915,-4.0746 -22.054,-7.5215 -33.363,-10.3238 -53.22,-14.0405002 -109.175,-19.2024302 -163.926,-22.1447302 -65.716,-3.62624 -131.608,-2.533704 -197.169,3.26921 -48.797,4.43926 -100.193,9.8077202 -146.564,26.6872202 -16.948,6.1771 -34.413,13.593 -47.3,26.6872 -15.8132,16.088 -20.9751,40.9685 -9.43,61.030904 8.208,14.247 22.111,24.313 36.857,30.972 19.207,8.58 39.266,15.109 59.844,19.478 57.297,12.664 116.642,17.636 175.178,19.753 64.88,2.618 129.863,0.496 194.433,-6.35 15.968,-1.755 31.907,-3.86 47.817,-6.314 18.738,-2.874 30.765,-27.376 25.242,-44.445 -6.608,-20.406 -24.365,-28.321 -44.444,-25.241 -2.96,0.464 -5.902,0.894 -8.862,1.324 l -2.133,0.31 c -6.803,0.861 -13.605,1.663 -20.407,2.409 -14.052,1.514 -28.138,2.753 -42.259,3.717 -31.626,2.202 -63.337,3.217 -95.031,3.269 -31.144,0 -62.305,-0.878 -93.38,-2.925 -14.178,-0.929 -28.322,-2.111 -42.431,-3.545 -6.418,-0.671 -12.819,-1.376 -19.219,-2.168 l -6.092,-0.774 -1.324,-0.189 -6.315,-0.912 c -12.905,-1.945 -25.81,-4.181 -38.577,-6.883 -1.288,-0.286 -2.441,-1.002004 -3.267,-2.031704 -0.826,-1.0292 -1.276,-2.3094 -1.276,-3.629 0,-1.3197 0.45,-2.5999 1.276,-3.6291 0.826,-1.0293 1.979,-1.746 3.267,-2.0319 h 0.241 c 11.064,-2.3572 22.213,-4.3704 33.397,-6.1255 3.729,-0.585 7.468,-1.1585 11.219,-1.7206 h 0.103 c 7.003,-0.4646 14.041,-1.7207 21.009,-2.5466 60.63,-6.3064 121.62,-8.4565 182.544,-6.4352 29.577,0.8604 59.138,2.5982 88.578,5.5921 6.332,0.6539 12.63,1.3422 18.927,2.1164 2.409,0.2926 4.835,0.6366 7.262,0.9292 l 4.886,0.7054 c 14.247,2.1222 28.419,4.6974 42.517,7.7258 20.889,4.5425 47.714,6.0222 57.005,28.906704 2.96,7.261 4.302,15.331 5.936,22.953 l 2.082,9.722 c 0.055,0.174 0.095,0.353 0.121,0.533 4.921,22.942 9.848,45.884 14.78,68.826 0.362,1.695 0.37,3.446 0.025,5.144 -0.345,1.699 -1.036,3.307 -2.031,4.727 -0.994,1.419 -2.271,2.618 -3.749,3.522 -1.479,0.904 -3.127,1.493 -4.844,1.732 h -0.138 l -3.011,0.413 -2.976,0.395 c -9.43,1.228 -18.87,2.375 -28.322,3.442 -18.618,2.122 -37.264,3.957 -55.938,5.506 -37.109,3.085 -74.292,5.11 -111.55,6.074 -18.984,0.504 -37.963,0.74 -56.936,0.705 -75.519,-0.059 -150.973,-4.449 -225.989,-13.146 -8.122,-0.963 -16.243,-1.996 -24.365,-3.045 6.298,0.809 -4.577,-0.62 -6.779,-0.929 -5.162,-0.723 -10.324,-1.474 -15.486,-2.254 -17.327,-2.599 -34.55,-5.799 -51.843,-8.604 -20.9056,-3.441 -40.8995,-1.72 -59.8094,8.604 -15.5221,8.494 -28.0851,21.519 -36.013,37.338 -8.1559,16.862 -10.582,35.221 -14.22974,53.34 -3.64777,18.118 -9.32591,37.613 -7.17511,56.213 4.62853,40.143 32.69225,72.766 73.05855,80.062 37.9747,6.882 76.1557,12.457 114.4397,17.206 150.39,18.419 302.323,20.622 453.184,6.573 12.285,-1.147 24.553,-2.397 36.804,-3.751 3.827,-0.42 7.699,0.02 11.333,1.29 3.634,1.27 6.938,3.337 9.67,6.049 2.732,2.712 4.822,6.001 6.118,9.625 1.297,3.625 1.766,7.494 1.373,11.323 l -3.82,37.132 c -7.697,75.031 -15.394,150.057 -23.091,225.077 -8.029,78.783 -16.111,157.56 -24.244,236.32602 -2.294,22.19 -4.588,44.37 -6.882,66.54 -2.203,21.84 -2.512,44.36 -6.659,65.94 -6.539,33.93 -29.509,54.77 -63.027,62.39 -30.708,6.99 -62.078,10.66 -93.569,10.94 -34.912,0.19 -69.806,-1.36 -104.718,-1.17 -37.27,0.21 -82.918,-3.23 -111.687,-30.97 -25.277,-24.36 -28.77,-62.51 -32.211,-95.5 -4.588,-43.67 -9.136,-87.33102 -13.645,-130.98902 l -25.293,-242.766 -16.363,-157.077 c -0.276,-2.598 -0.551,-5.162 -0.809,-7.778 -1.962,-18.737 -15.228,-37.079 -36.134,-36.133 -17.894,0.791 -38.232,16.002 -36.133,36.133 l 12.13,116.454 25.087,240.89 c 7.147,68.424 14.276,136.85602 21.388,205.30602 1.377,13.11 2.667,26.26 4.112,39.37 7.864,71.65 62.58,110.26 130.339,121.13 39.575,6.37 80.113,7.68 120.273,8.33 51.482,0.83 103.48,2.81 154.118,-6.52 75.038,-13.77 131.337,-63.87 139.372,-141.59 2.295,-22.44 4.589,-44.88 6.883,-67.33 7.628,-74.24102 15.245,-148.48702 22.85,-222.73902 l 24.881,-242.61 11.40798,-111.188 c 0.568,-5.514 2.896,-10.698 6.64,-14.785 3.743,-4.087 8.703,-6.861 14.145,-7.911 21.456,-4.181 41.967,-11.322 57.229,-27.651 24.295,-25.998 29.13,-59.895 20.544,-94.067 z m -807.13688,23.986 c 0.3269,-0.155 -0.2753,2.649 -0.5334,3.957 -0.0516,-1.979 0.0516,-3.734 0.5334,-3.957 z m 2.082,16.105 c 0.1721,-0.121 0.6882,0.568 1.2216,1.394 -0.8087,-0.758 -1.3248,-1.325 -1.2388,-1.394 z m 2.0476,2.701 c 0.7399,1.256 1.1356,2.048 0,0 z m 4.1123,3.338 h 0.1032 c 0,0.121 0.1893,0.241 0.2581,0.362 -0.1141,-0.133 -0.2408,-0.254 -0.3785,-0.362 z m 720.12398,-4.99 c -7.708,7.33 -19.323,10.737 -30.79998,12.441 -128.704,19.099 -259.283,28.769 -389.399,24.502 -93.121,-3.183 -185.261,-13.525 -277.453,-26.55 -9.0338,-1.273 -18.8243,-2.925 -25.0358,-9.584 -11.7004,-12.561 -5.9534,-37.854 -2.9079,-53.03 2.7875,-13.903 8.1215,-32.434 24.6569,-34.413 25.8098,-3.028 55.7828,7.863 81.3178,11.735 30.742,4.691 61.599,8.448 92.57,11.27 132.18,12.045 266.58,10.169 398.175,-7.45 23.985,-3.224 47.885,-6.969 71.699,-11.236 21.216,-3.803 44.73698,-10.943 57.55598,11.029 8.792,14.97 9.962,34.998 8.603,51.912 -0.419,7.369 -3.639,14.3 -8.999,19.374 z"
     fill="#0D0C22"
     id="path14"
     style="fill:#000000" />
</svg>
