<?xml version="1.0" encoding="UTF-8" standalone="no"?>
<svg
   width="2216.9768"
   height="3209.3889"
   viewBox="0 0 2216.9769 3209.389"
   fill="none"
   version="1.1"
   id="svg14"
   sodipodi:docname="coffee.svg"
   inkscape:version="1.3.2 (091e20e, 2023-11-25)"
   xmlns:inkscape="http://www.inkscape.org/namespaces/inkscape"
   xmlns:sodipodi="http://sodipodi.sourceforge.net/DTD/sodipodi-0.dtd"
   xmlns="http://www.w3.org/2000/svg"
   xmlns:svg="http://www.w3.org/2000/svg">
  <defs
     id="defs14" />
  <sodipodi:namedview
     id="namedview14"
     pagecolor="#ffffff"
     bordercolor="#000000"
     borderopacity="0.25"
     inkscape:showpageshadow="2"
     inkscape:pageopacity="0.0"
     inkscape:pagecheckerboard="0"
     inkscape:deskcolor="#d1d1d1"
     inkscape:zoom="0.074078439"
     inkscape:cx="-1322.9221"
     inkscape:cy="1491.6621"
     inkscape:window-width="1512"
     inkscape:window-height="842"
     inkscape:window-x="0"
     inkscape:window-y="38"
     inkscape:window-maximized="0"
     inkscape:current-layer="svg14" />
  <path
     d="m 1985.1218,746.5591 -2.2031,-1.2948 -5.0939,-1.5533 c 2.0501,1.7289 4.6146,2.7326 7.297,2.8481 z"
     fill="#0d0c22"
     id="path1"
     style="stroke-width:2.50929" />
  <path
     d="m 2017.2081,975.84044 -2.4591,0.69006 z"
     fill="#0d0c22"
     id="path2"
     style="stroke-width:2.50929" />
  <path
     d="m 1986.0628,746.2052 c -0.3137,-0.04 -0.6198,-0.1129 -0.9184,-0.2183 -0.025,0.2033 -0.025,0.4091 0,0.6123 0.3362,-0.045 0.6549,-0.1807 0.9184,-0.394 z"
     fill="#0d0c22"
     id="path3"
     style="stroke-width:2.50929" />
  <path
     d="m 1985.1318,746.5867 h 0.3288 v -0.2058 z"
     fill="#0d0c22"
     id="path4"
     style="stroke-width:2.50929" />
  <path
     d="m 2015.2383,975.42641 3.7138,-2.11533 1.3826,-0.77788 1.2521,-1.33745 c -2.3562,1.01375 -4.5042,2.44906 -6.3485,4.23066 z"
     fill="#0d0c22"
     id="path5"
     style="stroke-width:2.50929" />
  <path
     d="m 1991.5456,751.5701 -3.6284,-3.4553 -2.4591,-1.3374 c 1.3224,2.3336 3.5079,4.055 6.0875,4.7927 z"
     fill="#0d0c22"
     id="path6"
     style="stroke-width:2.50929" />
  <path
     d="m 1079.0422,2976.47 c -2.8982,1.2547 -5.4376,3.2119 -7.3848,5.6961 l 2.2885,-1.4554 c 1.5557,-1.4302 3.7564,-3.1115 5.0963,-4.2407 z"
     fill="#0d0c22"
     id="path7"
     style="stroke-width:2.50929" />
  <path
     d="m 1608.924,2872.209 c 0,-3.262 -1.5959,-2.6598 -1.2094,8.9833 0,-0.9284 0.3889,-1.882 0.562,-2.7853 0.2158,-2.0827 0.389,-4.1152 0.6474,-6.198 z"
     fill="#0d0c22"
     id="path8"
     style="stroke-width:2.50929" />
  <path
     d="m 1553.9631,2976.47 c -2.8983,1.2547 -5.4352,3.2119 -7.3824,5.6961 l 2.2885,-1.4554 c 1.5532,-1.4302 3.7564,-3.1115 5.0939,-4.2407 z"
     fill="#0d0c22"
     id="path9"
     style="stroke-width:2.50929" />
  <path
     d="m 705.8731,3001.2618 c -2.20065,-1.907 -4.89312,-3.1617 -7.77127,-3.6384 2.33113,1.1291 4.66226,2.2583 6.21551,3.1115 z"
     fill="#0d0c22"
     id="path10"
     style="stroke-width:2.50929" />
  <path
     d="m 621.90472,2920.8391 c -0.34378,-3.3876 -1.38764,-6.6747 -3.06636,-9.6608 1.18941,3.0864 2.18309,6.2732 2.97853,9.4851 z"
     fill="#0d0c22"
     id="path11"
     style="stroke-width:2.50929" />
  <path
     d="m 197.45199,968.91731 1.98585,1.85687 1.29555,0.77788 c -0.99744,-0.99116 -2.09752,-1.87443 -3.2814,-2.63475 z"
     fill="#0d0c22"
     id="path13"
     style="stroke-width:2.50929" />
  <path
     d="m 2207.0886,857.7984 -17.6579,-89.0723 c -15.8461,-79.9184 -51.8118,-155.4329 -133.8455,-184.3174 -26.2949,-9.2417 -56.1303,-13.2114 -76.2925,-32.3397 -20.1621,-19.1258 -26.1217,-48.8308 -30.7839,-76.3778 -8.637,-50.5597 -16.752,-101.162 -25.6048,-151.6339 -7.6408,-43.3932 -13.6857,-92.1379 -33.5894,-131.946 -25.9059,-53.4519 -79.6599,-84.7114 -133.1128,-105.392698 -27.3889,-10.2244 -55.3399,-18.8736 -83.7174,-25.9054 -133.5445,-35.2317 -273.9518,-48.1845 -411.338,-55.5675999 -164.9005,-9.0993 -330.24262,-6.3578 -494.75424,8.2033999 -122.44584,11.1394 -251.41332,24.6104 -367.77162,66.966 -42.52745,15.5001 -86.35221,34.108798 -118.68943,66.965898 -39.67991,40.3695 -52.63262,102.8019 -23.66261,153.1443 20.59625,35.7498 55.48292,61.0084 92.48491,77.7177 48.19594,21.5297 98.52979,37.9129 150.16597,48.876 143.77481,31.7776 292.6886,44.2538 439.5725,49.566 162.80272,6.5693 325.86392,1.2446 487.88882,-15.934 40.0683,-4.4038 80.0639,-9.6859 119.9867,-15.8437 47.0191,-7.2117 77.1983,-68.6943 63.3395,-111.5254 -16.5814,-51.2046 -61.1388,-71.0656 -111.5229,-63.337 -7.4275,1.1643 -14.8098,2.2433 -22.2373,3.3223 l -5.3523,0.7779 c -17.0707,2.1605 -34.1389,4.173 -51.2071,6.0449 -35.2605,3.7991 -70.6064,6.9081 -106.0401,9.327 -79.3588,5.5255 -158.9309,8.0724 -238.4604,8.2029 -78.14932,0 -156.34132,-2.2032 -234.31752,-7.3397 -35.5767,-2.3311 -71.06811,-5.2971 -106.47168,-8.8954 -16.10463,-1.6837 -32.1666,-3.4528 -48.22605,-5.4402 l -15.2866,-1.9421 -3.3223,-0.4743 -15.84617,-2.2885 c -32.38239,-4.8805 -64.76478,-10.4913 -96.80089,-17.2714 -3.23197,-0.7177 -6.12518,-2.5143 -8.19785,-5.0982 -2.07268,-2.5825 -3.20186,-5.7949 -3.20186,-9.1062 0,-3.3115 1.12918,-6.5239 3.20186,-9.1064 2.07267,-2.5828 4.96588,-4.3813 8.19785,-5.0987 h 0.60474 c 27.76278,-5.9149 55.73886,-10.9666 83.80277,-15.3706 9.35714,-1.468 18.73938,-2.907 28.15172,-4.3175 h 0.25846 c 17.57256,-1.1658 35.23295,-4.3177 52.71768,-6.3902 152.13832,-15.8246 305.17994,-21.2198 458.05594,-16.1477 74.2172,2.1589 148.3944,6.5196 222.2679,14.0322 15.8888,1.6408 31.6923,3.3679 47.4933,5.3106 6.0449,0.7342 12.1324,1.5974 18.2225,2.3316 l 12.2604,1.7701 c 35.7498,5.3252 71.3115,11.7871 106.6875,19.3863 52.4165,11.3984 119.7283,15.1114 143.0421,72.5353 7.4275,18.2199 10.7949,38.4699 14.8951,57.5957 l 5.2244,24.3953 c 0.138,0.4367 0.2383,0.8858 0.3036,1.3375 12.3482,57.5681 24.7115,115.1363 37.0873,172.7044 0.9084,4.2533 0.9284,8.647 0.063,12.9078 -0.8657,4.2633 -2.5996,8.2982 -5.0963,11.8614 -2.4943,3.5607 -5.6986,6.5693 -9.4074,8.8377 -3.7112,2.2684 -7.8465,3.7464 -12.155,4.3461 h -0.3463 l -7.5554,1.0364 -7.4677,0.9911 c -23.6626,3.0814 -47.3503,5.9596 -71.0681,8.637 -46.718,5.3247 -93.5062,9.9293 -140.3647,13.8162 -93.1172,7.7411 -186.4202,12.8224 -279.9113,15.2414 -47.6364,1.2647 -95.2602,1.8569 -142.869,1.769 -189.49912,-0.148 -378.83507,-11.1638 -567.07199,-32.9871 -20.38045,-2.4164 -40.7584,-5.0085 -61.13886,-7.6408 15.80351,2.03 -11.48502,-1.5557 -17.01048,-2.3311 -12.95295,-1.8142 -25.90591,-3.6987 -38.85887,-5.6559 -43.47847,-6.5217 -86.69598,-14.5514 -130.08913,-21.59 -52.45822,-8.6344 -102.62872,-4.316 -150.07915,21.59 -38.94945,21.3139 -70.473671,53.9974 -90.367071,93.6918 -20.46552,42.3117 -26.55331,88.3798 -35.70655,133.8456 C 10.037389,858.6616 -4.2107214,907.5802 1.1862686,954.25302 12.800589,1054.9835 83.220609,1136.844 184.51138,1155.1518 c 95.28954,17.269 191.09676,31.2583 287.16243,43.1749 377.37217,46.2186 758.61619,51.7466 1137.17019,16.4935 30.8267,-2.8781 61.6106,-6.0147 92.352,-9.4123 9.603,-1.0539 19.319,0.05 28.4377,3.237 9.1188,3.1868 17.4095,8.3735 24.2649,15.1787 6.8554,6.8052 12.0998,15.0582 15.3518,24.1519 3.2546,9.0962 4.4314,18.8046 3.4453,28.4127 l -9.5855,93.175 c -19.314,188.2745 -38.628,376.5365 -57.942,564.7835 -20.1471,197.6894 -40.4272,395.3638 -60.8353,593.0106 -5.7563,55.6811 -11.5126,111.3372 -17.2689,166.9682 -5.528,54.8029 -6.3033,111.3121 -16.7094,165.4626 -16.4082,85.1402 -74.0466,137.4338 -158.153,156.5546 -77.0553,17.5399 -155.7717,26.749 -234.7918,27.4516 -87.6043,0.4768 -175.1635,-3.4126 -262.76792,-2.9359 -93.5212,0.527 -208.06528,-8.105 -280.25506,-77.7127 C 610.95919,2902.0194 602.19424,2806.29 593.55977,2723.5085 582.04715,2613.9278 570.6349,2504.3696 559.32051,2394.819 l -63.46748,-609.1703 -41.05952,-394.1518 c -0.69256,-6.5192 -1.38262,-12.953 -2.03002,-19.5173 -4.92322,-47.0166 -38.21147,-93.042 -90.67069,-90.6682 -44.90124,1.9849 -95.93519,40.1537 -90.66819,90.6682 l 30.43769,292.2169 62.95057,604.4629 c 17.9339,171.6957 35.82263,343.4115 53.6687,515.1724 3.45529,32.8968 6.69228,65.894 10.3182,98.7908 19.73306,179.7906 157.03139,276.6743 327.05839,303.9503 99.30512,15.9842 201.02682,19.2714 301.79994,20.9024 129.1832,2.0827 259.6613,7.0511 386.7268,-16.3606 188.2921,-34.5529 329.5626,-160.2683 349.7248,-355.2904 5.7588,-56.3084 11.5151,-112.6169 17.2714,-168.9505 19.1409,-186.2923 38.2541,-372.597 57.3373,-558.9168 l 62.4336,-608.779 28.626,-279.0029 c 1.4253,-13.8363 7.2669,-26.8444 16.6617,-37.0999 9.3922,-10.2555 21.8383,-17.2162 35.4939,-19.851 53.8393,-10.4913 105.3074,-28.4102 143.6042,-69.3844 60.9632,-65.2365 73.0956,-150.29392 51.5508,-236.0414 z M 181.74785,917.9862 c 0.82028,-0.3889 -0.69081,6.6472 -1.33846,9.9293 -0.12948,-4.9659 0.12948,-9.3697 1.33846,-9.9293 z m 5.22434,40.41217 c 0.43185,-0.30363 1.72689,1.42527 3.06535,3.49795 -2.02926,-1.90205 -3.32431,-3.32481 -3.10851,-3.49795 z m 5.13802,6.77759 c 1.85663,3.15167 2.84955,5.13902 0,0 z m 10.31896,8.37601 h 0.25896 c 0,0.30362 0.475,0.60474 0.64764,0.90836 -0.28631,-0.33373 -0.60423,-0.63736 -0.94976,-0.90836 z M 2009.4293,961.03061 c -19.3416,18.3931 -48.487,26.94225 -77.2861,31.21808 -322.9557,47.92491 -650.6163,72.18981 -977.11512,61.48261 -233.66764,-7.987 -464.87365,-33.9381 -696.21014,-66.62164 -22.66843,-3.19432 -47.23564,-7.33967 -62.82209,-24.04903 -29.3597,-31.5192 -14.93881,-94.98663 -7.29677,-133.06763 6.99465,-34.8867 20.3792,-81.3864 61.87132,-86.3522 64.76428,-7.5982 139.97524,19.7305 204.04997,29.4465 77.1406,11.7711 154.56977,21.1985 232.285,28.2797 331.67803,30.2244 668.92663,25.517 999.13673,-18.6942 60.1853,-8.09 120.1573,-17.4873 179.9136,-28.1944 53.2371,-9.5429 112.258,-27.4592 144.4246,27.6749 22.0617,37.5641 24.9976,87.8202 21.5875,130.2623 -1.0514,18.491 -9.1314,35.88287 -22.5812,48.61501 z"
     fill="#0D0C22"
     id="path14"
     style="fill:#000000;stroke-width:2.50929" />
</svg>
