<?xml version="1.0" encoding="UTF-8" standalone="no"?>
<!-- Uploaded to: SVG Repo, www.svgrepo.com, Generator: SVG Repo Mixer Tools -->

<svg
   fill="#000000"
   height="741.27423"
   width="1548.3064"
   version="1.1"
   id="Layer_1"
   viewBox="0 0 990.91609 474.41551"
   xml:space="preserve"
   sodipodi:docname="mouse_human_icon.svg"
   inkscape:version="1.1.2 (0a00cf5339, 2022-02-04)"
   xmlns:inkscape="http://www.inkscape.org/namespaces/inkscape"
   xmlns:sodipodi="http://sodipodi.sourceforge.net/DTD/sodipodi-0.dtd"
   xmlns="http://www.w3.org/2000/svg"
   xmlns:svg="http://www.w3.org/2000/svg"><defs
   id="defs46" /><sodipodi:namedview
   id="namedview44"
   pagecolor="#ffffff"
   bordercolor="#666666"
   borderopacity="1.0"
   inkscape:pageshadow="2"
   inkscape:pageopacity="0.0"
   inkscape:pagecheckerboard="0"
   showgrid="false"
   inkscape:zoom="0.63446243"
   inkscape:cx="734.48005"
   inkscape:cy="446.83497"
   inkscape:window-width="1920"
   inkscape:window-height="1016"
   inkscape:window-x="1920"
   inkscape:window-y="27"
   inkscape:window-maximized="1"
   inkscape:current-layer="Layer_1"
   fit-margin-top="0"
   fit-margin-left="0"
   fit-margin-right="0"
   fit-margin-bottom="0" />







<path
   class="cls-1"
   d="m 869.26243,314.30023 -10.6744,-3.04981 c -17.96,-4.91358 -30.3287,-8.64114 -32.3619,-29.65097 47.9499,-50.83023 47.2721,-96.06913 46.2555,-143.51066 0,-6.43851 0,-12.877 0,-19.48493 A 120.29821,120.29821 0 0 0 753.87773,0 120.29821,120.29821 0 0 0 635.10448,118.60386 c 0,6.60793 0,13.04642 0,19.48493 -1.0166,47.44153 -1.69434,92.34157 46.25551,143.51067 -2.0332,21.00983 -14.4019,24.73739 -32.36191,29.65096 l -10.67436,3.04981 c -60.6574,20.16266 -121.82309,75.39818 -121.82309,143.17182 a 16.943411,16.943411 0 0 0 33.88682,0 c 0,-50.83022 50.83023,-95.05252 98.61063,-110.97933 2.71095,-1.01661 5.76076,-1.69435 8.81058,-2.5415 a 69.637412,69.637412 0 0 0 52.69397,-38.96985 91.494411,91.494411 0 0 0 86.4114,0 69.637412,69.637412 0 0 0 52.694,39.817 c 3.0498,0.8472 6.0997,1.52492 8.8106,2.54153 47.7804,15.07963 98.6106,59.30193 98.6106,110.13215 a 16.94345,16.94345 0 0 0 33.8869,0 c 0,-67.77364 -61.1658,-123.00915 -121.6537,-143.17182 z m -158.5904,-50.83021 c -43.37507,-43.20571 -42.69734,-79.46459 -41.68072,-124.87294 0,-6.43849 0,-13.21586 0,-19.99322 a 84.71706,84.71706 0 0 1 169.43412,0 c 0,6.77736 0,13.55473 0,19.99322 0,45.40835 1.5249,81.32836 -41.8502,124.70351 a 60.657405,60.657405 0 0 1 -85.9032,0 z"
   id="path869"
   style="fill:#000000;stroke-width:5.12304;stroke-miterlimit:4;stroke-dasharray:none" /><g
   id="g1596"
   transform="translate(-307.86577,30.418515)"><path
     class="cls-1"
     d="m 602.18006,92.596876 -53.76,-41.386666 A 137.17333,137.17333 0 0 0 409.32672,35.423544 141.44,141.44 0 0 0 328.26006,165.77021 v 102.18666 0 a 122.02666,122.02666 0 0 0 122.24,122.24 h 17.70666 a 156.8,156.8 0 0 0 80.42667,-21.33333 v 0 a 155.73333,155.73333 0 0 1 135.25333,-13.44 l 92.37333,34.56"
     id="path6"
     style="fill:none;stroke:#020202;stroke-width:40.7467px;stroke-miterlimit:10" /><path
     class="cls-1"
     d="m 328.26006,165.34354 v 0 a 101.76,101.76 0 0 0 101.76,101.76 h 319.99999 a 27.306666,27.306666 0 0 0 27.30667,-27.30667 v 0 a 26.88,26.88 0 0 0 -10.66667,-21.33333 l -67.41333,-51.62666 a 61.418144,61.418144 0 0 0 -89.17333,-84.480003 50.559999,50.559999 0 0 0 -7.89333,10.239999 60.799999,60.799999 0 0 0 8.74666,75.306664"
     id="path8-3"
     style="fill:none;stroke:#020202;stroke-width:40.7467px;stroke-miterlimit:10" /><path
     class="cls-1"
     d="m 430.02006,145.07688 a 61.013332,61.013332 0 1 1 0,122.02666"
     id="path10"
     style="fill:none;stroke:#020202;stroke-width:40.7467px;stroke-miterlimit:10" /></g></svg>
